<mxfile host="app.diagrams.net" modified="2020-09-13T08:53:50.420Z" agent="5.0 (Windows NT 10.0; Win64; x64) AppleWebKit/537.36 (KHTML, like Gecko) Chrome/86.0.4240.30 Safari/537.36" etag="fjAjleC_AmT0r56xycWq" version="13.6.10" type="github">
  <diagram id="SmJTf4wW6SdyIuIH7xTj" name="Page-1">
    <mxGraphModel dx="1422" dy="832" grid="1" gridSize="10" guides="1" tooltips="1" connect="1" arrows="1" fold="1" page="1" pageScale="1" pageWidth="827" pageHeight="1169" math="0" shadow="0">
      <root>
        <mxCell id="0" />
        <mxCell id="1" parent="0" />
        <mxCell id="2EBHpzkCXa870_cZxz3k-1" value="" style="ellipse;html=1;shape=endState;fillColor=#000000;strokeColor=#ff0000;" vertex="1" parent="1">
          <mxGeometry x="680" y="820" width="30" height="30" as="geometry" />
        </mxCell>
        <mxCell id="2EBHpzkCXa870_cZxz3k-2" value="Début" style="text;html=1;strokeColor=none;fillColor=none;align=center;verticalAlign=middle;whiteSpace=wrap;rounded=0;" vertex="1" parent="1">
          <mxGeometry x="420" y="75" width="40" height="20" as="geometry" />
        </mxCell>
        <mxCell id="2EBHpzkCXa870_cZxz3k-3" value="" style="ellipse;whiteSpace=wrap;html=1;aspect=fixed;fillColor=#000000;" vertex="1" parent="1">
          <mxGeometry x="382.5" y="70" width="30" height="30" as="geometry" />
        </mxCell>
        <mxCell id="2EBHpzkCXa870_cZxz3k-6" value="" style="endArrow=classic;html=1;exitX=0.5;exitY=1;exitDx=0;exitDy=0;strokeColor=#FF0000;" edge="1" parent="1" source="2EBHpzkCXa870_cZxz3k-3">
          <mxGeometry width="50" height="50" relative="1" as="geometry">
            <mxPoint x="427.5" y="350" as="sourcePoint" />
            <mxPoint x="397.5" y="150" as="targetPoint" />
          </mxGeometry>
        </mxCell>
        <mxCell id="2EBHpzkCXa870_cZxz3k-64" style="edgeStyle=orthogonalEdgeStyle;rounded=0;orthogonalLoop=1;jettySize=auto;html=1;exitX=0.5;exitY=1;exitDx=0;exitDy=0;entryX=0.5;entryY=0;entryDx=0;entryDy=0;strokeColor=#000000;" edge="1" parent="1" source="2EBHpzkCXa870_cZxz3k-7" target="2EBHpzkCXa870_cZxz3k-51">
          <mxGeometry relative="1" as="geometry" />
        </mxCell>
        <mxCell id="2EBHpzkCXa870_cZxz3k-67" style="edgeStyle=orthogonalEdgeStyle;rounded=0;orthogonalLoop=1;jettySize=auto;html=1;exitX=0.5;exitY=1;exitDx=0;exitDy=0;strokeColor=#000000;" edge="1" parent="1" source="2EBHpzkCXa870_cZxz3k-7" target="2EBHpzkCXa870_cZxz3k-11">
          <mxGeometry relative="1" as="geometry" />
        </mxCell>
        <mxCell id="2EBHpzkCXa870_cZxz3k-68" style="edgeStyle=orthogonalEdgeStyle;rounded=0;orthogonalLoop=1;jettySize=auto;html=1;exitX=0.5;exitY=1;exitDx=0;exitDy=0;entryX=0.5;entryY=0;entryDx=0;entryDy=0;strokeColor=#000000;" edge="1" parent="1" source="2EBHpzkCXa870_cZxz3k-7" target="2EBHpzkCXa870_cZxz3k-10">
          <mxGeometry relative="1" as="geometry" />
        </mxCell>
        <mxCell id="2EBHpzkCXa870_cZxz3k-69" style="edgeStyle=orthogonalEdgeStyle;rounded=0;orthogonalLoop=1;jettySize=auto;html=1;exitX=0.5;exitY=1;exitDx=0;exitDy=0;entryX=0.5;entryY=0;entryDx=0;entryDy=0;strokeColor=#000000;" edge="1" parent="1" source="2EBHpzkCXa870_cZxz3k-7" target="2EBHpzkCXa870_cZxz3k-9">
          <mxGeometry relative="1" as="geometry" />
        </mxCell>
        <mxCell id="2EBHpzkCXa870_cZxz3k-7" value="Menu Principal" style="rounded=0;whiteSpace=wrap;html=1;fillColor=none;" vertex="1" parent="1">
          <mxGeometry x="342.5" y="150" width="110" height="50" as="geometry" />
        </mxCell>
        <mxCell id="2EBHpzkCXa870_cZxz3k-24" style="edgeStyle=orthogonalEdgeStyle;rounded=0;orthogonalLoop=1;jettySize=auto;html=1;exitX=1;exitY=0.5;exitDx=0;exitDy=0;entryX=0;entryY=0;entryDx=0;entryDy=0;strokeColor=#000000;" edge="1" parent="1" source="2EBHpzkCXa870_cZxz3k-9" target="2EBHpzkCXa870_cZxz3k-19">
          <mxGeometry relative="1" as="geometry">
            <Array as="points">
              <mxPoint x="220" y="305" />
              <mxPoint x="220" y="364" />
            </Array>
          </mxGeometry>
        </mxCell>
        <mxCell id="2EBHpzkCXa870_cZxz3k-9" value="Création de Compte" style="rounded=0;whiteSpace=wrap;html=1;fillColor=none;" vertex="1" parent="1">
          <mxGeometry x="100" y="280" width="110" height="50" as="geometry" />
        </mxCell>
        <mxCell id="2EBHpzkCXa870_cZxz3k-10" value="Connexion" style="rounded=0;whiteSpace=wrap;html=1;fillColor=none;" vertex="1" parent="1">
          <mxGeometry x="270" y="280" width="110" height="50" as="geometry" />
        </mxCell>
        <mxCell id="2EBHpzkCXa870_cZxz3k-11" value="Jouer en tant qu&#39;invité" style="rounded=0;whiteSpace=wrap;html=1;fillColor=none;" vertex="1" parent="1">
          <mxGeometry x="410" y="280" width="110" height="50" as="geometry" />
        </mxCell>
        <mxCell id="2EBHpzkCXa870_cZxz3k-29" style="edgeStyle=orthogonalEdgeStyle;rounded=0;orthogonalLoop=1;jettySize=auto;html=1;exitX=0.5;exitY=1;exitDx=0;exitDy=0;entryX=0.5;entryY=0;entryDx=0;entryDy=0;strokeColor=#000000;" edge="1" parent="1" source="2EBHpzkCXa870_cZxz3k-12">
          <mxGeometry relative="1" as="geometry">
            <mxPoint x="405" y="600" as="targetPoint" />
          </mxGeometry>
        </mxCell>
        <mxCell id="2EBHpzkCXa870_cZxz3k-12" value="Sélection de jeu" style="rounded=0;whiteSpace=wrap;html=1;fillColor=none;" vertex="1" parent="1">
          <mxGeometry x="350" y="500" width="110" height="50" as="geometry" />
        </mxCell>
        <mxCell id="2EBHpzkCXa870_cZxz3k-13" value="" style="ellipse;whiteSpace=wrap;html=1;aspect=fixed;fillColor=#000000;" vertex="1" parent="1">
          <mxGeometry x="392.5" y="440" width="25" height="25" as="geometry" />
        </mxCell>
        <mxCell id="2EBHpzkCXa870_cZxz3k-14" value="" style="endArrow=classic;html=1;exitX=0.5;exitY=1;exitDx=0;exitDy=0;entryX=1;entryY=0;entryDx=0;entryDy=0;" edge="1" parent="1" source="2EBHpzkCXa870_cZxz3k-11" target="2EBHpzkCXa870_cZxz3k-13">
          <mxGeometry width="50" height="50" relative="1" as="geometry">
            <mxPoint x="450" y="390" as="sourcePoint" />
            <mxPoint x="500" y="340" as="targetPoint" />
          </mxGeometry>
        </mxCell>
        <mxCell id="2EBHpzkCXa870_cZxz3k-15" value="" style="endArrow=classic;html=1;exitX=0.5;exitY=1;exitDx=0;exitDy=0;entryX=0.5;entryY=0;entryDx=0;entryDy=0;" edge="1" parent="1" source="2EBHpzkCXa870_cZxz3k-10" target="2EBHpzkCXa870_cZxz3k-19">
          <mxGeometry width="50" height="50" relative="1" as="geometry">
            <mxPoint x="475" y="340" as="sourcePoint" />
            <mxPoint x="416.338834764832" y="383.661165235168" as="targetPoint" />
          </mxGeometry>
        </mxCell>
        <mxCell id="2EBHpzkCXa870_cZxz3k-17" value="[Connexion réussie]" style="text;html=1;strokeColor=none;fillColor=none;align=center;verticalAlign=middle;whiteSpace=wrap;rounded=0;" vertex="1" parent="1">
          <mxGeometry x="310" y="410" width="40" height="20" as="geometry" />
        </mxCell>
        <mxCell id="2EBHpzkCXa870_cZxz3k-23" style="edgeStyle=orthogonalEdgeStyle;rounded=0;orthogonalLoop=1;jettySize=auto;html=1;exitX=0;exitY=0.5;exitDx=0;exitDy=0;entryX=0.5;entryY=1;entryDx=0;entryDy=0;strokeColor=#000000;" edge="1" parent="1" source="2EBHpzkCXa870_cZxz3k-19" target="2EBHpzkCXa870_cZxz3k-9">
          <mxGeometry relative="1" as="geometry" />
        </mxCell>
        <mxCell id="2EBHpzkCXa870_cZxz3k-19" value="" style="ellipse;whiteSpace=wrap;html=1;aspect=fixed;fillColor=#000000;" vertex="1" parent="1">
          <mxGeometry x="312.5" y="360" width="25" height="25" as="geometry" />
        </mxCell>
        <mxCell id="2EBHpzkCXa870_cZxz3k-20" value="" style="endArrow=classic;html=1;entryX=0;entryY=0;entryDx=0;entryDy=0;exitX=1;exitY=1;exitDx=0;exitDy=0;" edge="1" parent="1" source="2EBHpzkCXa870_cZxz3k-19" target="2EBHpzkCXa870_cZxz3k-13">
          <mxGeometry width="50" height="50" relative="1" as="geometry">
            <mxPoint x="370" y="380" as="sourcePoint" />
            <mxPoint x="335" y="370" as="targetPoint" />
          </mxGeometry>
        </mxCell>
        <mxCell id="2EBHpzkCXa870_cZxz3k-25" value="[Echec de connexion]" style="text;html=1;strokeColor=none;fillColor=none;align=center;verticalAlign=middle;whiteSpace=wrap;rounded=0;" vertex="1" parent="1">
          <mxGeometry x="190" y="385" width="40" height="20" as="geometry" />
        </mxCell>
        <mxCell id="2EBHpzkCXa870_cZxz3k-30" value="Poser une carte" style="rounded=0;whiteSpace=wrap;html=1;fillColor=none;" vertex="1" parent="1">
          <mxGeometry x="220" y="650" width="110" height="50" as="geometry" />
        </mxCell>
        <mxCell id="2EBHpzkCXa870_cZxz3k-31" value="Piocher une carte" style="rounded=0;whiteSpace=wrap;html=1;fillColor=none;" vertex="1" parent="1">
          <mxGeometry x="350" y="650" width="110" height="50" as="geometry" />
        </mxCell>
        <mxCell id="2EBHpzkCXa870_cZxz3k-32" value="Passer son tour" style="rounded=0;whiteSpace=wrap;html=1;fillColor=none;" vertex="1" parent="1">
          <mxGeometry x="480" y="650" width="110" height="50" as="geometry" />
        </mxCell>
        <mxCell id="2EBHpzkCXa870_cZxz3k-37" style="edgeStyle=orthogonalEdgeStyle;rounded=0;orthogonalLoop=1;jettySize=auto;html=1;exitX=0.5;exitY=1;exitDx=0;exitDy=0;entryX=0.5;entryY=0;entryDx=0;entryDy=0;strokeColor=#000000;" edge="1" parent="1" source="2EBHpzkCXa870_cZxz3k-33" target="2EBHpzkCXa870_cZxz3k-36">
          <mxGeometry relative="1" as="geometry" />
        </mxCell>
        <mxCell id="2EBHpzkCXa870_cZxz3k-33" value="" style="rounded=0;whiteSpace=wrap;html=1;fillColor=none;" vertex="1" parent="1">
          <mxGeometry x="210" y="600" width="390" height="115" as="geometry" />
        </mxCell>
        <mxCell id="2EBHpzkCXa870_cZxz3k-34" value="Menu de jeu (joueur)" style="text;html=1;strokeColor=none;fillColor=none;align=center;verticalAlign=middle;whiteSpace=wrap;rounded=0;" vertex="1" parent="1">
          <mxGeometry x="345" y="610" width="120" height="20" as="geometry" />
        </mxCell>
        <mxCell id="2EBHpzkCXa870_cZxz3k-50" style="edgeStyle=orthogonalEdgeStyle;rounded=0;orthogonalLoop=1;jettySize=auto;html=1;exitX=1;exitY=0.5;exitDx=0;exitDy=0;entryX=0.75;entryY=1;entryDx=0;entryDy=0;strokeColor=#000000;" edge="1" parent="1" source="2EBHpzkCXa870_cZxz3k-36" target="2EBHpzkCXa870_cZxz3k-33">
          <mxGeometry relative="1" as="geometry">
            <Array as="points">
              <mxPoint x="503" y="785" />
              <mxPoint x="503" y="738" />
            </Array>
          </mxGeometry>
        </mxCell>
        <mxCell id="2EBHpzkCXa870_cZxz3k-54" style="edgeStyle=orthogonalEdgeStyle;rounded=0;orthogonalLoop=1;jettySize=auto;html=1;exitX=0.5;exitY=1;exitDx=0;exitDy=0;entryX=0.5;entryY=0;entryDx=0;entryDy=0;strokeColor=#000000;" edge="1" parent="1" source="2EBHpzkCXa870_cZxz3k-36" target="2EBHpzkCXa870_cZxz3k-53">
          <mxGeometry relative="1" as="geometry" />
        </mxCell>
        <mxCell id="2EBHpzkCXa870_cZxz3k-36" value="Affichage du reste du tour" style="rounded=0;whiteSpace=wrap;html=1;fillColor=none;" vertex="1" parent="1">
          <mxGeometry x="350" y="760" width="110" height="50" as="geometry" />
        </mxCell>
        <mxCell id="2EBHpzkCXa870_cZxz3k-49" value="" style="endArrow=classic;startArrow=classic;html=1;strokeColor=#000000;exitX=0.5;exitY=0;exitDx=0;exitDy=0;entryX=0.5;entryY=1;entryDx=0;entryDy=0;" edge="1" parent="1" source="2EBHpzkCXa870_cZxz3k-12" target="2EBHpzkCXa870_cZxz3k-13">
          <mxGeometry width="50" height="50" relative="1" as="geometry">
            <mxPoint x="470" y="520" as="sourcePoint" />
            <mxPoint x="520" y="470" as="targetPoint" />
          </mxGeometry>
        </mxCell>
        <mxCell id="2EBHpzkCXa870_cZxz3k-65" style="edgeStyle=orthogonalEdgeStyle;rounded=0;orthogonalLoop=1;jettySize=auto;html=1;exitX=1;exitY=0.5;exitDx=0;exitDy=0;entryX=0.5;entryY=0;entryDx=0;entryDy=0;strokeColor=#000000;" edge="1" parent="1" source="2EBHpzkCXa870_cZxz3k-51">
          <mxGeometry relative="1" as="geometry">
            <mxPoint x="695" y="820" as="targetPoint" />
          </mxGeometry>
        </mxCell>
        <mxCell id="2EBHpzkCXa870_cZxz3k-51" value="Quitter l&#39;application" style="rounded=0;whiteSpace=wrap;html=1;fillColor=none;" vertex="1" parent="1">
          <mxGeometry x="540" y="280" width="110" height="50" as="geometry" />
        </mxCell>
        <mxCell id="2EBHpzkCXa870_cZxz3k-52" value="[Début de partie]" style="text;html=1;strokeColor=none;fillColor=none;align=center;verticalAlign=middle;whiteSpace=wrap;rounded=0;" vertex="1" parent="1">
          <mxGeometry x="410" y="564.5" width="110" height="20" as="geometry" />
        </mxCell>
        <mxCell id="2EBHpzkCXa870_cZxz3k-57" style="edgeStyle=orthogonalEdgeStyle;rounded=0;orthogonalLoop=1;jettySize=auto;html=1;exitX=0.5;exitY=1;exitDx=0;exitDy=0;entryX=0.5;entryY=0;entryDx=0;entryDy=0;strokeColor=#000000;" edge="1" parent="1" source="2EBHpzkCXa870_cZxz3k-53" target="2EBHpzkCXa870_cZxz3k-55">
          <mxGeometry relative="1" as="geometry" />
        </mxCell>
        <mxCell id="2EBHpzkCXa870_cZxz3k-58" style="edgeStyle=orthogonalEdgeStyle;rounded=0;orthogonalLoop=1;jettySize=auto;html=1;exitX=0.5;exitY=1;exitDx=0;exitDy=0;strokeColor=#000000;" edge="1" parent="1" source="2EBHpzkCXa870_cZxz3k-53" target="2EBHpzkCXa870_cZxz3k-56">
          <mxGeometry relative="1" as="geometry" />
        </mxCell>
        <mxCell id="2EBHpzkCXa870_cZxz3k-60" style="edgeStyle=orthogonalEdgeStyle;rounded=0;orthogonalLoop=1;jettySize=auto;html=1;exitX=0.5;exitY=1;exitDx=0;exitDy=0;entryX=0.5;entryY=0;entryDx=0;entryDy=0;strokeColor=#000000;" edge="1" parent="1" source="2EBHpzkCXa870_cZxz3k-53" target="2EBHpzkCXa870_cZxz3k-59">
          <mxGeometry relative="1" as="geometry" />
        </mxCell>
        <mxCell id="2EBHpzkCXa870_cZxz3k-63" style="edgeStyle=orthogonalEdgeStyle;rounded=0;orthogonalLoop=1;jettySize=auto;html=1;exitX=0.5;exitY=1;exitDx=0;exitDy=0;entryX=0.5;entryY=0;entryDx=0;entryDy=0;strokeColor=#000000;" edge="1" parent="1" source="2EBHpzkCXa870_cZxz3k-53" target="2EBHpzkCXa870_cZxz3k-62">
          <mxGeometry relative="1" as="geometry" />
        </mxCell>
        <mxCell id="2EBHpzkCXa870_cZxz3k-53" value="Menu de fin de partie" style="rounded=0;whiteSpace=wrap;html=1;fillColor=none;" vertex="1" parent="1">
          <mxGeometry x="350" y="850" width="110" height="50" as="geometry" />
        </mxCell>
        <mxCell id="2EBHpzkCXa870_cZxz3k-55" value="Afficher les scores" style="rounded=0;whiteSpace=wrap;html=1;fillColor=none;" vertex="1" parent="1">
          <mxGeometry x="282.5" y="940" width="110" height="50" as="geometry" />
        </mxCell>
        <mxCell id="2EBHpzkCXa870_cZxz3k-56" value="Enregistrer les scores" style="rounded=0;whiteSpace=wrap;html=1;fillColor=none;" vertex="1" parent="1">
          <mxGeometry x="417.5" y="940" width="110" height="50" as="geometry" />
        </mxCell>
        <mxCell id="2EBHpzkCXa870_cZxz3k-61" style="edgeStyle=orthogonalEdgeStyle;rounded=0;orthogonalLoop=1;jettySize=auto;html=1;exitX=0;exitY=0.5;exitDx=0;exitDy=0;entryX=0;entryY=0.5;entryDx=0;entryDy=0;strokeColor=#000000;" edge="1" parent="1" source="2EBHpzkCXa870_cZxz3k-59" target="2EBHpzkCXa870_cZxz3k-12">
          <mxGeometry relative="1" as="geometry" />
        </mxCell>
        <mxCell id="2EBHpzkCXa870_cZxz3k-59" value="Rejouer" style="rounded=0;whiteSpace=wrap;html=1;fillColor=none;" vertex="1" parent="1">
          <mxGeometry x="150" y="940" width="110" height="50" as="geometry" />
        </mxCell>
        <mxCell id="2EBHpzkCXa870_cZxz3k-66" style="edgeStyle=orthogonalEdgeStyle;rounded=0;orthogonalLoop=1;jettySize=auto;html=1;exitX=1;exitY=0.5;exitDx=0;exitDy=0;entryX=0.5;entryY=1;entryDx=0;entryDy=0;strokeColor=#000000;" edge="1" parent="1" source="2EBHpzkCXa870_cZxz3k-62">
          <mxGeometry relative="1" as="geometry">
            <mxPoint x="695" y="850" as="targetPoint" />
          </mxGeometry>
        </mxCell>
        <mxCell id="2EBHpzkCXa870_cZxz3k-62" value="Quitter l&#39;application" style="rounded=0;whiteSpace=wrap;html=1;fillColor=none;" vertex="1" parent="1">
          <mxGeometry x="550" y="940" width="110" height="50" as="geometry" />
        </mxCell>
        <mxCell id="2EBHpzkCXa870_cZxz3k-71" value="Fin" style="text;html=1;strokeColor=none;fillColor=none;align=center;verticalAlign=middle;whiteSpace=wrap;rounded=0;" vertex="1" parent="1">
          <mxGeometry x="720" y="825" width="40" height="20" as="geometry" />
        </mxCell>
      </root>
    </mxGraphModel>
  </diagram>
</mxfile>
